<svg xmlns="http://www.w3.org/2000/svg" xmlns:xlink="http://www.w3.org/1999/xlink" width="1920" zoomAndPan="magnify" viewBox="0 0 1440 809.999993" height="1080" preserveAspectRatio="xMidYMid meet" version="1.0"><defs><radialGradient gradientTransform="matrix(1, 0, 0, 1, 0.00000622222, 0.00002)" gradientUnits="userSpaceOnUse" r="826.0902" cx="719.999994" id="66e9255c47" cy="404.999997" fx="719.999994" fy="404.999997"><stop stop-opacity="1" stop-color="rgb(80.311584%, 99.891663%, 84.757996%)" offset="0"/><stop stop-opacity="1" stop-color="rgb(80.093384%, 99.623108%, 84.907532%)" offset="0.0078125"/><stop stop-opacity="1" stop-color="rgb(79.830933%, 99.301147%, 85.087585%)" offset="0.0195312"/><stop stop-opacity="1" stop-color="rgb(79.568481%, 98.977661%, 85.266113%)" offset="0.03125"/><stop stop-opacity="1" stop-color="rgb(79.30603%, 98.655701%, 85.446167%)" offset="0.0429688"/><stop stop-opacity="1" stop-color="rgb(79.043579%, 98.33374%, 85.624695%)" offset="0.0546875"/><stop stop-opacity="1" stop-color="rgb(78.781128%, 98.01178%, 85.804749%)" offset="0.0664062"/><stop stop-opacity="1" stop-color="rgb(78.518677%, 97.689819%, 85.983276%)" offset="0.078125"/><stop stop-opacity="1" stop-color="rgb(78.256226%, 97.366333%, 86.16333%)" offset="0.0898438"/><stop stop-opacity="1" stop-color="rgb(77.992249%, 97.044373%, 86.341858%)" offset="0.101562"/><stop stop-opacity="1" stop-color="rgb(77.729797%, 96.722412%, 86.521912%)" offset="0.113281"/><stop stop-opacity="1" stop-color="rgb(77.467346%, 96.400452%, 86.700439%)" offset="0.125"/><stop stop-opacity="1" stop-color="rgb(77.204895%, 96.078491%, 86.880493%)" offset="0.136719"/><stop stop-opacity="1" stop-color="rgb(76.942444%, 95.755005%, 87.059021%)" offset="0.148438"/><stop stop-opacity="1" stop-color="rgb(76.679993%, 95.433044%, 87.239075%)" offset="0.160156"/><stop stop-opacity="1" stop-color="rgb(76.417542%, 95.111084%, 87.417603%)" offset="0.171875"/><stop stop-opacity="1" stop-color="rgb(76.15509%, 94.789124%, 87.597656%)" offset="0.183594"/><stop stop-opacity="1" stop-color="rgb(75.892639%, 94.467163%, 87.776184%)" offset="0.195312"/><stop stop-opacity="1" stop-color="rgb(75.630188%, 94.143677%, 87.956238%)" offset="0.207031"/><stop stop-opacity="1" stop-color="rgb(75.367737%, 93.821716%, 88.134766%)" offset="0.21875"/><stop stop-opacity="1" stop-color="rgb(75.105286%, 93.499756%, 88.314819%)" offset="0.230469"/><stop stop-opacity="1" stop-color="rgb(74.842834%, 93.177795%, 88.493347%)" offset="0.242188"/><stop stop-opacity="1" stop-color="rgb(74.623108%, 92.909241%, 88.642883%)" offset="0.253906"/><stop stop-opacity="1" stop-color="rgb(74.449158%, 92.694092%, 88.763428%)" offset="0.261719"/><stop stop-opacity="1" stop-color="rgb(74.273682%, 92.478943%, 88.882446%)" offset="0.269531"/><stop stop-opacity="1" stop-color="rgb(74.098206%, 92.263794%, 89.001465%)" offset="0.277344"/><stop stop-opacity="1" stop-color="rgb(73.924255%, 92.050171%, 89.122009%)" offset="0.285156"/><stop stop-opacity="1" stop-color="rgb(73.748779%, 91.835022%, 89.241028%)" offset="0.292969"/><stop stop-opacity="1" stop-color="rgb(73.573303%, 91.619873%, 89.360046%)" offset="0.300781"/><stop stop-opacity="1" stop-color="rgb(73.399353%, 91.404724%, 89.480591%)" offset="0.308594"/><stop stop-opacity="1" stop-color="rgb(73.223877%, 91.189575%, 89.599609%)" offset="0.316406"/><stop stop-opacity="1" stop-color="rgb(73.048401%, 90.975952%, 89.718628%)" offset="0.324219"/><stop stop-opacity="1" stop-color="rgb(72.874451%, 90.760803%, 89.839172%)" offset="0.332031"/><stop stop-opacity="1" stop-color="rgb(72.698975%, 90.545654%, 89.958191%)" offset="0.339844"/><stop stop-opacity="1" stop-color="rgb(72.523499%, 90.330505%, 90.077209%)" offset="0.347656"/><stop stop-opacity="1" stop-color="rgb(72.348022%, 90.115356%, 90.197754%)" offset="0.355469"/><stop stop-opacity="1" stop-color="rgb(72.174072%, 89.901733%, 90.316772%)" offset="0.363281"/><stop stop-opacity="1" stop-color="rgb(71.998596%, 89.686584%, 90.435791%)" offset="0.371094"/><stop stop-opacity="1" stop-color="rgb(71.82312%, 89.471436%, 90.556335%)" offset="0.378906"/><stop stop-opacity="1" stop-color="rgb(71.64917%, 89.256287%, 90.675354%)" offset="0.386719"/><stop stop-opacity="1" stop-color="rgb(71.473694%, 89.041138%, 90.794373%)" offset="0.394531"/><stop stop-opacity="1" stop-color="rgb(71.298218%, 88.827515%, 90.914917%)" offset="0.402344"/><stop stop-opacity="1" stop-color="rgb(71.124268%, 88.612366%, 91.033936%)" offset="0.410156"/><stop stop-opacity="1" stop-color="rgb(70.948792%, 88.397217%, 91.152954%)" offset="0.417969"/><stop stop-opacity="1" stop-color="rgb(70.773315%, 88.182068%, 91.273499%)" offset="0.425781"/><stop stop-opacity="1" stop-color="rgb(70.599365%, 87.966919%, 91.392517%)" offset="0.433594"/><stop stop-opacity="1" stop-color="rgb(70.423889%, 87.753296%, 91.511536%)" offset="0.441406"/><stop stop-opacity="1" stop-color="rgb(70.248413%, 87.538147%, 91.63208%)" offset="0.449219"/><stop stop-opacity="1" stop-color="rgb(70.074463%, 87.322998%, 91.751099%)" offset="0.457031"/><stop stop-opacity="1" stop-color="rgb(69.898987%, 87.107849%, 91.870117%)" offset="0.464844"/><stop stop-opacity="1" stop-color="rgb(69.723511%, 86.8927%, 91.990662%)" offset="0.472656"/><stop stop-opacity="1" stop-color="rgb(69.548035%, 86.679077%, 92.10968%)" offset="0.480469"/><stop stop-opacity="1" stop-color="rgb(69.374084%, 86.463928%, 92.228699%)" offset="0.488281"/><stop stop-opacity="1" stop-color="rgb(69.198608%, 86.248779%, 92.349243%)" offset="0.496094"/><stop stop-opacity="1" stop-color="rgb(68.980408%, 85.980225%, 92.498779%)" offset="0.503906"/><stop stop-opacity="1" stop-color="rgb(68.717957%, 85.658264%, 92.677307%)" offset="0.515625"/><stop stop-opacity="1" stop-color="rgb(68.455505%, 85.336304%, 92.857361%)" offset="0.527344"/><stop stop-opacity="1" stop-color="rgb(68.193054%, 85.012817%, 93.035889%)" offset="0.539062"/><stop stop-opacity="1" stop-color="rgb(67.930603%, 84.690857%, 93.215942%)" offset="0.550781"/><stop stop-opacity="1" stop-color="rgb(67.668152%, 84.368896%, 93.39447%)" offset="0.5625"/><stop stop-opacity="1" stop-color="rgb(67.405701%, 84.046936%, 93.574524%)" offset="0.574219"/><stop stop-opacity="1" stop-color="rgb(67.14325%, 83.724976%, 93.753052%)" offset="0.585938"/><stop stop-opacity="1" stop-color="rgb(66.880798%, 83.401489%, 93.933105%)" offset="0.597656"/><stop stop-opacity="1" stop-color="rgb(66.618347%, 83.079529%, 94.111633%)" offset="0.609375"/><stop stop-opacity="1" stop-color="rgb(66.355896%, 82.757568%, 94.291687%)" offset="0.621094"/><stop stop-opacity="1" stop-color="rgb(66.136169%, 82.489014%, 94.441223%)" offset="0.632812"/><stop stop-opacity="1" stop-color="rgb(65.960693%, 82.273865%, 94.560242%)" offset="0.640625"/><stop stop-opacity="1" stop-color="rgb(65.786743%, 82.058716%, 94.67926%)" offset="0.648438"/><stop stop-opacity="1" stop-color="rgb(65.611267%, 81.845093%, 94.799805%)" offset="0.65625"/><stop stop-opacity="1" stop-color="rgb(65.435791%, 81.629944%, 94.918823%)" offset="0.664062"/><stop stop-opacity="1" stop-color="rgb(65.261841%, 81.414795%, 95.037842%)" offset="0.671875"/><stop stop-opacity="1" stop-color="rgb(65.086365%, 81.199646%, 95.158386%)" offset="0.679688"/><stop stop-opacity="1" stop-color="rgb(64.910889%, 80.984497%, 95.277405%)" offset="0.6875"/><stop stop-opacity="1" stop-color="rgb(64.736938%, 80.770874%, 95.396423%)" offset="0.695312"/><stop stop-opacity="1" stop-color="rgb(64.561462%, 80.555725%, 95.516968%)" offset="0.703125"/><stop stop-opacity="1" stop-color="rgb(64.385986%, 80.340576%, 95.635986%)" offset="0.710938"/><stop stop-opacity="1" stop-color="rgb(64.21051%, 80.125427%, 95.755005%)" offset="0.71875"/><stop stop-opacity="1" stop-color="rgb(64.03656%, 79.910278%, 95.875549%)" offset="0.726562"/><stop stop-opacity="1" stop-color="rgb(63.861084%, 79.696655%, 95.994568%)" offset="0.734375"/><stop stop-opacity="1" stop-color="rgb(63.685608%, 79.481506%, 96.113586%)" offset="0.742188"/><stop stop-opacity="1" stop-color="rgb(63.511658%, 79.266357%, 96.234131%)" offset="0.75"/><stop stop-opacity="1" stop-color="rgb(63.293457%, 78.997803%, 96.383667%)" offset="0.757812"/><stop stop-opacity="1" stop-color="rgb(63.031006%, 78.675842%, 96.562195%)" offset="0.769531"/><stop stop-opacity="1" stop-color="rgb(62.768555%, 78.353882%, 96.742249%)" offset="0.78125"/><stop stop-opacity="1" stop-color="rgb(62.506104%, 78.030396%, 96.920776%)" offset="0.792969"/><stop stop-opacity="1" stop-color="rgb(62.243652%, 77.708435%, 97.10083%)" offset="0.804688"/><stop stop-opacity="1" stop-color="rgb(62.023926%, 77.43988%, 97.250366%)" offset="0.816406"/><stop stop-opacity="1" stop-color="rgb(61.84845%, 77.224731%, 97.369385%)" offset="0.824219"/><stop stop-opacity="1" stop-color="rgb(61.672974%, 77.011108%, 97.488403%)" offset="0.832031"/><stop stop-opacity="1" stop-color="rgb(61.499023%, 76.795959%, 97.608948%)" offset="0.839844"/><stop stop-opacity="1" stop-color="rgb(61.323547%, 76.580811%, 97.727966%)" offset="0.847656"/><stop stop-opacity="1" stop-color="rgb(61.148071%, 76.365662%, 97.846985%)" offset="0.855469"/><stop stop-opacity="1" stop-color="rgb(60.974121%, 76.150513%, 97.967529%)" offset="0.863281"/><stop stop-opacity="1" stop-color="rgb(60.798645%, 75.93689%, 98.086548%)" offset="0.871094"/><stop stop-opacity="1" stop-color="rgb(60.580444%, 75.668335%, 98.236084%)" offset="0.878906"/><stop stop-opacity="1" stop-color="rgb(60.317993%, 75.344849%, 98.414612%)" offset="0.890625"/><stop stop-opacity="1" stop-color="rgb(60.055542%, 75.022888%, 98.594666%)" offset="0.902344"/><stop stop-opacity="1" stop-color="rgb(59.835815%, 74.754333%, 98.744202%)" offset="0.914062"/><stop stop-opacity="1" stop-color="rgb(59.661865%, 74.539185%, 98.86322%)" offset="0.921875"/><stop stop-opacity="1" stop-color="rgb(59.486389%, 74.325562%, 98.982239%)" offset="0.929688"/><stop stop-opacity="1" stop-color="rgb(59.310913%, 74.110413%, 99.102783%)" offset="0.9375"/><stop stop-opacity="1" stop-color="rgb(59.092712%, 73.841858%, 99.252319%)" offset="0.945312"/><stop stop-opacity="1" stop-color="rgb(58.872986%, 73.573303%, 99.401855%)" offset="0.957031"/><stop stop-opacity="1" stop-color="rgb(58.699036%, 73.358154%, 99.520874%)" offset="0.964844"/><stop stop-opacity="1" stop-color="rgb(58.480835%, 73.0896%, 99.67041%)" offset="0.972656"/><stop stop-opacity="1" stop-color="rgb(58.261108%, 72.821045%, 99.819946%)" offset="0.984375"/><stop stop-opacity="1" stop-color="rgb(58.085632%, 72.605896%, 99.938965%)" offset="0.992188"/><stop stop-opacity="1" stop-color="rgb(57.998657%, 72.499084%, 100%)" offset="1"/></radialGradient></defs><rect x="-144" width="1728" fill="#ffffff" y="-80.999999" height="971.999992" fill-opacity="1"/><rect x="-144" fill="url(#66e9255c47)" width="1728" y="-80.999999" height="971.999992"/><path fill="#000000" d="M 1272.992188 277.167969 C 1310.003906 285.234375 1343.605469 314.023438 1343.605469 353.820312 L 1343.605469 464.625 C 1343.605469 466.902344 1345.453125 468.75 1347.734375 468.75 C 1350.011719 468.75 1351.859375 466.902344 1351.859375 464.625 L 1351.859375 353.820312 C 1351.859375 312.054688 1318.785156 281.289062 1280.871094 270.675781 C 1278.441406 273.0625 1275.808594 275.238281 1272.992188 277.167969 Z M 1272.992188 277.167969 " fill-opacity="1" fill-rule="nonzero"/><path fill="#000000" d="M 1191.617188 237.511719 C 1207.070312 248.324219 1220.230469 261.902344 1229.558594 277.761719 C 1233.0625 278.550781 1236.691406 279 1240.429688 279 C 1267.769531 279 1289.953125 256.828125 1289.953125 229.507812 C 1289.953125 202.167969 1267.769531 180 1240.429688 180 C 1213.101562 180 1190.910156 202.167969 1190.910156 229.507812 C 1190.910156 232.238281 1191.1875 234.898438 1191.613281 237.507812 Z M 1191.617188 237.511719 " fill-opacity="1" fill-rule="nonzero"/><path fill="#000000" d="M 1236.234375 332.113281 C 1236.234375 275.769531 1189.414062 234.59375 1136.667969 221.539062 C 1133.558594 223.835938 1130.339844 225.988281 1126.921875 227.839844 C 1179.449219 237.753906 1227.980469 277.15625 1227.980469 332.113281 C 1227.980469 332.113281 1228.003906 454.179688 1228.050781 472.886719 C 1228.058594 475.160156 1229.90625 477 1232.179688 477 C 1232.183594 477 1232.1875 477 1232.191406 477 C 1234.46875 476.992188 1236.3125 475.144531 1236.304688 472.863281 C 1236.257812 454.160156 1236.234375 332.113281 1236.234375 332.113281 Z M 1236.234375 332.113281 " fill-opacity="1" fill-rule="nonzero"/><path fill="#000000" d="M 947.421875 332.113281 C 947.421875 277.128906 995.984375 237.714844 1048.523438 227.824219 C 1045.105469 225.972656 1041.886719 223.816406 1038.78125 221.519531 C 986.019531 234.554688 939.167969 275.738281 939.167969 332.113281 L 939.167969 402.75 C 939.167969 405.027344 941.015625 406.875 943.296875 406.875 C 945.574219 406.875 947.421875 405.027344 947.421875 402.75 Z M 947.421875 332.113281 " fill-opacity="1" fill-rule="nonzero"/><path fill="#000000" d="M 1087.738281 229.5 C 1128.730469 229.5 1162.023438 196.25 1162.023438 155.261719 C 1162.023438 114.257812 1128.730469 81 1087.738281 81 C 1046.734375 81 1013.453125 114.257812 1013.453125 155.261719 C 1013.453125 196.25 1046.734375 229.5 1087.738281 229.5 Z M 1087.738281 229.5 " fill-opacity="1" fill-rule="nonzero"/><path fill="#000000" d="M 1009.324219 423.375 C 1011.605469 423.375 1013.453125 421.527344 1013.453125 419.25 L 1013.453125 372.921875 C 1013.453125 345.183594 1037.785156 324.894531 1065.265625 318.375 C 1062.230469 316.636719 1059.425781 314.550781 1056.878906 312.1875 C 1028.8125 321.113281 1005.199219 343.3125 1005.199219 372.921875 L 1005.199219 419.25 C 1005.199219 421.527344 1007.046875 423.375 1009.324219 423.375 Z M 1009.324219 423.375 " fill-opacity="1" fill-rule="nonzero"/><path fill="#000000" d="M 1170.234375 372.921875 C 1170.234375 343.328125 1146.636719 321.136719 1118.582031 312.199219 C 1116.035156 314.566406 1113.230469 316.648438 1110.191406 318.382812 C 1137.667969 324.914062 1161.980469 345.199219 1161.980469 372.921875 C 1161.980469 372.921875 1161.992188 462.601562 1162.023438 472.886719 C 1162.027344 475.160156 1163.875 477 1166.148438 477 C 1166.152344 477 1166.15625 477 1166.160156 477 C 1168.441406 476.992188 1170.28125 475.140625 1170.277344 472.863281 C 1170.246094 462.582031 1170.234375 372.921875 1170.234375 372.921875 Z M 1170.234375 372.921875 " fill-opacity="1" fill-rule="nonzero"/><path fill="#000000" d="M 947.378906 419.25 C 947.378906 419.519531 947.351562 419.789062 947.300781 420.054688 C 947.246094 420.320312 947.167969 420.578125 947.066406 420.828125 C 946.960938 421.078125 946.835938 421.316406 946.683594 421.542969 C 946.535156 421.765625 946.363281 421.976562 946.171875 422.167969 C 945.980469 422.359375 945.769531 422.53125 945.546875 422.679688 C 945.320312 422.832031 945.082031 422.957031 944.832031 423.0625 C 944.582031 423.164062 944.324219 423.242188 944.058594 423.296875 C 943.792969 423.347656 943.523438 423.375 943.253906 423.375 C 942.980469 423.375 942.714844 423.347656 942.449219 423.296875 C 942.179688 423.242188 941.921875 423.164062 941.671875 423.0625 C 941.421875 422.957031 941.183594 422.832031 940.960938 422.679688 C 940.734375 422.53125 940.527344 422.359375 940.335938 422.167969 C 940.144531 421.976562 939.972656 421.765625 939.820312 421.542969 C 939.671875 421.316406 939.542969 421.078125 939.441406 420.828125 C 939.335938 420.578125 939.257812 420.320312 939.203125 420.054688 C 939.152344 419.789062 939.125 419.519531 939.125 419.25 C 939.125 418.980469 939.152344 418.710938 939.203125 418.445312 C 939.257812 418.179688 939.335938 417.921875 939.441406 417.671875 C 939.542969 417.421875 939.671875 417.183594 939.820312 416.957031 C 939.972656 416.734375 940.144531 416.523438 940.335938 416.332031 C 940.527344 416.140625 940.734375 415.96875 940.960938 415.820312 C 941.183594 415.667969 941.421875 415.542969 941.671875 415.4375 C 941.921875 415.335938 942.179688 415.257812 942.449219 415.203125 C 942.714844 415.152344 942.980469 415.125 943.253906 415.125 C 943.523438 415.125 943.792969 415.152344 944.058594 415.203125 C 944.324219 415.257812 944.582031 415.335938 944.832031 415.4375 C 945.082031 415.542969 945.320312 415.667969 945.546875 415.820312 C 945.769531 415.96875 945.980469 416.140625 946.171875 416.332031 C 946.363281 416.523438 946.535156 416.734375 946.683594 416.957031 C 946.835938 417.183594 946.960938 417.421875 947.066406 417.671875 C 947.167969 417.921875 947.246094 418.179688 947.300781 418.445312 C 947.351562 418.710938 947.378906 418.980469 947.378906 419.25 Z M 947.378906 419.25 " fill-opacity="1" fill-rule="nonzero"/><path fill="#000000" d="M 1236.304688 489.121094 C 1236.304688 489.390625 1236.277344 489.660156 1236.226562 489.925781 C 1236.171875 490.191406 1236.09375 490.449219 1235.992188 490.699219 C 1235.886719 490.949219 1235.761719 491.1875 1235.609375 491.410156 C 1235.460938 491.636719 1235.289062 491.84375 1235.097656 492.035156 C 1234.90625 492.226562 1234.695312 492.398438 1234.472656 492.550781 C 1234.246094 492.699219 1234.007812 492.828125 1233.757812 492.929688 C 1233.507812 493.035156 1233.25 493.113281 1232.984375 493.164062 C 1232.71875 493.21875 1232.449219 493.246094 1232.179688 493.246094 C 1231.90625 493.246094 1231.636719 493.21875 1231.371094 493.164062 C 1231.105469 493.113281 1230.847656 493.035156 1230.597656 492.929688 C 1230.347656 492.828125 1230.109375 492.699219 1229.886719 492.550781 C 1229.660156 492.398438 1229.453125 492.226562 1229.257812 492.035156 C 1229.066406 491.84375 1228.898438 491.636719 1228.746094 491.410156 C 1228.597656 491.1875 1228.46875 490.949219 1228.363281 490.699219 C 1228.261719 490.449219 1228.183594 490.191406 1228.128906 489.925781 C 1228.078125 489.660156 1228.050781 489.390625 1228.050781 489.121094 C 1228.050781 488.847656 1228.078125 488.582031 1228.128906 488.316406 C 1228.183594 488.050781 1228.261719 487.789062 1228.363281 487.539062 C 1228.46875 487.289062 1228.597656 487.050781 1228.746094 486.828125 C 1228.898438 486.601562 1229.066406 486.394531 1229.257812 486.203125 C 1229.453125 486.011719 1229.660156 485.839844 1229.886719 485.6875 C 1230.109375 485.539062 1230.347656 485.410156 1230.597656 485.308594 C 1230.847656 485.203125 1231.105469 485.125 1231.371094 485.074219 C 1231.636719 485.019531 1231.90625 484.996094 1232.179688 484.996094 C 1232.449219 484.996094 1232.71875 485.019531 1232.984375 485.074219 C 1233.25 485.125 1233.507812 485.203125 1233.757812 485.308594 C 1234.007812 485.410156 1234.246094 485.539062 1234.472656 485.6875 C 1234.695312 485.839844 1234.90625 486.011719 1235.097656 486.203125 C 1235.289062 486.394531 1235.460938 486.601562 1235.609375 486.828125 C 1235.761719 487.050781 1235.886719 487.289062 1235.992188 487.539062 C 1236.09375 487.789062 1236.171875 488.050781 1236.226562 488.316406 C 1236.277344 488.582031 1236.304688 488.847656 1236.304688 489.121094 Z M 1236.304688 489.121094 " fill-opacity="1" fill-rule="nonzero"/><path fill="#000000" d="M 1170.273438 489.375 C 1170.273438 489.644531 1170.25 489.914062 1170.195312 490.179688 C 1170.144531 490.445312 1170.0625 490.703125 1169.960938 490.953125 C 1169.855469 491.203125 1169.730469 491.441406 1169.578125 491.667969 C 1169.429688 491.890625 1169.257812 492.101562 1169.066406 492.292969 C 1168.875 492.484375 1168.664062 492.652344 1168.441406 492.804688 C 1168.214844 492.957031 1167.976562 493.082031 1167.726562 493.1875 C 1167.476562 493.289062 1167.21875 493.367188 1166.953125 493.421875 C 1166.6875 493.472656 1166.417969 493.5 1166.148438 493.5 C 1165.875 493.5 1165.609375 493.472656 1165.34375 493.421875 C 1165.078125 493.367188 1164.820312 493.289062 1164.566406 493.1875 C 1164.316406 493.082031 1164.082031 492.957031 1163.855469 492.804688 C 1163.628906 492.652344 1163.421875 492.484375 1163.230469 492.292969 C 1163.039062 492.101562 1162.867188 491.890625 1162.714844 491.667969 C 1162.566406 491.441406 1162.4375 491.203125 1162.335938 490.953125 C 1162.230469 490.703125 1162.152344 490.445312 1162.101562 490.179688 C 1162.046875 489.914062 1162.019531 489.644531 1162.019531 489.375 C 1162.019531 489.105469 1162.046875 488.835938 1162.101562 488.570312 C 1162.152344 488.304688 1162.230469 488.046875 1162.335938 487.796875 C 1162.4375 487.546875 1162.566406 487.308594 1162.714844 487.082031 C 1162.867188 486.859375 1163.039062 486.648438 1163.230469 486.457031 C 1163.421875 486.265625 1163.628906 486.09375 1163.855469 485.945312 C 1164.078125 485.792969 1164.316406 485.667969 1164.566406 485.5625 C 1164.820312 485.460938 1165.078125 485.382812 1165.34375 485.328125 C 1165.609375 485.277344 1165.875 485.25 1166.148438 485.25 C 1166.417969 485.25 1166.6875 485.277344 1166.953125 485.328125 C 1167.21875 485.382812 1167.476562 485.460938 1167.726562 485.5625 C 1167.976562 485.667969 1168.214844 485.792969 1168.441406 485.945312 C 1168.664062 486.09375 1168.875 486.265625 1169.066406 486.457031 C 1169.257812 486.648438 1169.429688 486.859375 1169.578125 487.082031 C 1169.730469 487.308594 1169.855469 487.546875 1169.960938 487.796875 C 1170.0625 488.046875 1170.144531 488.304688 1170.195312 488.570312 C 1170.25 488.835938 1170.273438 489.105469 1170.273438 489.375 Z M 1170.273438 489.375 " fill-opacity="1" fill-rule="nonzero"/><path fill="#000000" d="M 1351.859375 489.121094 C 1351.859375 489.390625 1351.835938 489.660156 1351.78125 489.925781 C 1351.730469 490.191406 1351.652344 490.449219 1351.546875 490.699219 C 1351.445312 490.949219 1351.316406 491.1875 1351.164062 491.410156 C 1351.015625 491.636719 1350.84375 491.84375 1350.652344 492.035156 C 1350.460938 492.226562 1350.253906 492.398438 1350.027344 492.550781 C 1349.800781 492.699219 1349.5625 492.828125 1349.3125 492.929688 C 1349.0625 493.035156 1348.804688 493.113281 1348.539062 493.164062 C 1348.273438 493.21875 1348.003906 493.246094 1347.734375 493.246094 C 1347.464844 493.246094 1347.195312 493.21875 1346.929688 493.164062 C 1346.664062 493.113281 1346.40625 493.035156 1346.15625 492.929688 C 1345.90625 492.828125 1345.667969 492.699219 1345.441406 492.550781 C 1345.214844 492.398438 1345.007812 492.226562 1344.816406 492.035156 C 1344.625 491.84375 1344.453125 491.636719 1344.300781 491.410156 C 1344.152344 491.1875 1344.023438 490.949219 1343.921875 490.699219 C 1343.816406 490.449219 1343.738281 490.191406 1343.6875 489.925781 C 1343.632812 489.660156 1343.605469 489.390625 1343.605469 489.121094 C 1343.605469 488.847656 1343.632812 488.582031 1343.6875 488.316406 C 1343.738281 488.050781 1343.816406 487.789062 1343.921875 487.539062 C 1344.023438 487.289062 1344.152344 487.050781 1344.300781 486.828125 C 1344.453125 486.601562 1344.625 486.394531 1344.816406 486.203125 C 1345.007812 486.011719 1345.214844 485.839844 1345.441406 485.6875 C 1345.667969 485.539062 1345.90625 485.410156 1346.15625 485.308594 C 1346.40625 485.203125 1346.664062 485.125 1346.929688 485.074219 C 1347.195312 485.019531 1347.464844 484.996094 1347.734375 484.996094 C 1348.003906 484.996094 1348.273438 485.019531 1348.539062 485.074219 C 1348.804688 485.125 1349.0625 485.203125 1349.3125 485.308594 C 1349.5625 485.410156 1349.800781 485.539062 1350.027344 485.6875 C 1350.253906 485.839844 1350.460938 486.011719 1350.652344 486.203125 C 1350.84375 486.394531 1351.015625 486.601562 1351.164062 486.828125 C 1351.316406 487.050781 1351.445312 487.289062 1351.546875 487.539062 C 1351.652344 487.789062 1351.730469 488.050781 1351.78125 488.316406 C 1351.835938 488.582031 1351.859375 488.847656 1351.859375 489.121094 Z M 1351.859375 489.121094 " fill-opacity="1" fill-rule="nonzero"/><path fill="#000000" d="M 1028.414062 505.015625 C 1028.414062 505.289062 1028.386719 505.554688 1028.332031 505.820312 C 1028.28125 506.085938 1028.203125 506.34375 1028.097656 506.59375 C 1027.996094 506.847656 1027.867188 507.082031 1027.714844 507.308594 C 1027.566406 507.535156 1027.394531 507.742188 1027.203125 507.933594 C 1027.011719 508.125 1026.804688 508.296875 1026.578125 508.445312 C 1026.351562 508.597656 1026.113281 508.722656 1025.863281 508.828125 C 1025.613281 508.929688 1025.355469 509.011719 1025.089844 509.0625 C 1024.824219 509.117188 1024.554688 509.140625 1024.285156 509.140625 C 1024.015625 509.140625 1023.746094 509.117188 1023.480469 509.0625 C 1023.214844 509.011719 1022.957031 508.929688 1022.707031 508.828125 C 1022.457031 508.722656 1022.21875 508.597656 1021.992188 508.445312 C 1021.765625 508.296875 1021.558594 508.125 1021.367188 507.933594 C 1021.175781 507.742188 1021.003906 507.535156 1020.851562 507.308594 C 1020.703125 507.082031 1020.574219 506.847656 1020.472656 506.59375 C 1020.367188 506.34375 1020.289062 506.085938 1020.238281 505.820312 C 1020.183594 505.554688 1020.15625 505.289062 1020.15625 505.015625 C 1020.15625 504.746094 1020.183594 504.476562 1020.238281 504.210938 C 1020.289062 503.945312 1020.367188 503.6875 1020.472656 503.4375 C 1020.574219 503.1875 1020.703125 502.949219 1020.851562 502.726562 C 1021.003906 502.5 1021.175781 502.292969 1021.367188 502.101562 C 1021.558594 501.910156 1021.765625 501.738281 1021.992188 501.585938 C 1022.21875 501.4375 1022.457031 501.308594 1022.707031 501.207031 C 1022.957031 501.101562 1023.214844 501.023438 1023.480469 500.972656 C 1023.746094 500.917969 1024.015625 500.890625 1024.285156 500.890625 C 1024.554688 500.890625 1024.824219 500.917969 1025.089844 500.972656 C 1025.355469 501.023438 1025.613281 501.101562 1025.863281 501.207031 C 1026.113281 501.308594 1026.351562 501.4375 1026.578125 501.585938 C 1026.804688 501.738281 1027.011719 501.910156 1027.203125 502.101562 C 1027.394531 502.292969 1027.566406 502.5 1027.714844 502.726562 C 1027.867188 502.949219 1027.996094 503.1875 1028.097656 503.4375 C 1028.203125 503.6875 1028.28125 503.945312 1028.332031 504.210938 C 1028.386719 504.476562 1028.414062 504.746094 1028.414062 505.015625 Z M 1028.414062 505.015625 " fill-opacity="1" fill-rule="nonzero"/><path fill="#000000" d="M 922.660156 588.023438 L 922.660156 561.128906 L 937.070312 553.261719 C 946.714844 548.894531 957.695312 550.277344 965.210938 552.21875 C 986.53125 557.695312 1006.894531 568.277344 1026.585938 578.507812 C 1043.414062 587.253906 1060.816406 596.296875 1079.039062 602.339844 C 1092.332031 606.75 1106.511719 608.957031 1121.75 608.953125 C 1141.152344 608.953125 1162.277344 605.375 1185.460938 598.203125 C 1212.535156 589.828125 1280.875 563.925781 1294.960938 558.085938 C 1296.652344 557.386719 1298.648438 556.605469 1300.863281 555.734375 C 1320.921875 547.875 1358.257812 533.246094 1350.957031 507.988281 C 1347.53125 496.117188 1334.34375 492.550781 1322.78125 494.28125 C 1321.835938 494.429688 1207.027344 517.726562 1171.863281 524.863281 C 1169.628906 525.316406 1168.1875 527.496094 1168.640625 529.730469 C 1169.089844 531.960938 1171.261719 533.394531 1173.507812 532.949219 C 1224.734375 522.550781 1322.140625 502.789062 1324.027344 502.4375 C 1331.753906 501.28125 1340.996094 503.238281 1343.027344 510.277344 C 1348.238281 528.308594 1315.460938 541.15625 1297.851562 548.054688 C 1295.578125 548.945312 1293.527344 549.75 1291.796875 550.464844 C 1277.796875 556.273438 1209.898438 582.007812 1183.015625 590.324219 C 1143.328125 602.597656 1110.167969 603.96875 1081.636719 594.511719 C 1064.039062 588.675781 1046.933594 579.785156 1030.390625 571.1875 C 1010.289062 560.742188 989.5 549.9375 967.269531 544.230469 C 954.648438 540.980469 943.035156 541.503906 933.390625 545.882812 L 922.660156 551.738281 L 922.660156 460.351562 L 965.191406 448.019531 C 965.632812 447.878906 1009.910156 434.621094 1051.886719 457.210938 L 1053.839844 458.261719 C 1068.140625 465.953125 1082.929688 473.902344 1097.332031 481.9375 C 1098.640625 482.667969 1100.414062 483.582031 1102.503906 484.65625 C 1113.945312 490.539062 1137.753906 502.78125 1140.988281 515.808594 C 1141.839844 519.25 1141.117188 522.550781 1138.777344 525.902344 C 1131.488281 536.339844 1078.5 518.425781 1058.546875 511.679688 C 1051.222656 509.203125 1045.433594 507.246094 1042.167969 506.457031 C 1039.964844 505.921875 1037.726562 507.28125 1037.1875 509.5 C 1036.652344 511.714844 1038.015625 513.941406 1040.230469 514.476562 C 1043.136719 515.179688 1048.769531 517.082031 1055.90625 519.496094 C 1097.441406 533.535156 1135.550781 544.953125 1145.542969 530.625 C 1149.277344 525.28125 1150.4375 519.628906 1148.996094 513.824219 C 1144.863281 497.15625 1119.761719 484.253906 1106.277344 477.316406 C 1104.289062 476.296875 1102.601562 475.429688 1101.355469 474.734375 C 1086.898438 466.667969 1072.078125 458.703125 1057.75 450.996094 L 1055.796875 449.949219 C 1010.820312 425.742188 964.703125 439.539062 962.824219 440.117188 L 922.660156 451.761719 L 922.660156 440.230469 C 922.660156 421.808594 907.878906 419.25 889.644531 419.25 L 885.519531 419.25 L 885.519531 442.625 C 885.519531 444.90625 883.671875 446.75 881.390625 446.75 C 879.113281 446.75 877.265625 444.90625 877.265625 442.625 L 877.265625 419.25 L 869.011719 419.25 L 869.011719 459.125 C 869.011719 461.40625 867.164062 463.25 864.882812 463.25 C 862.605469 463.25 860.757812 461.40625 860.757812 459.125 L 860.757812 419.25 L 823.613281 419.25 L 823.613281 609 L 889.644531 609 C 907.878906 609 922.660156 606.441406 922.660156 588.023438 Z M 864.882812 479.0625 C 862.605469 479.0625 860.757812 477.214844 860.757812 474.9375 C 860.757812 472.660156 862.605469 470.8125 864.882812 470.8125 C 867.164062 470.8125 869.011719 472.660156 869.011719 474.9375 C 869.011719 477.214844 867.164062 479.0625 864.882812 479.0625 Z M 864.882812 479.0625 " fill-opacity="1" fill-rule="nonzero"/><path fill="#000000" d="M 935.042969 279 C 938.75 279 942.351562 278.558594 945.828125 277.785156 C 955.171875 261.878906 968.375 248.269531 983.871094 237.441406 C 984.289062 234.851562 984.566406 232.214844 984.566406 229.507812 C 984.566406 202.167969 962.375 180 935.042969 180 C 907.707031 180 885.519531 202.167969 885.519531 229.507812 C 885.519531 256.828125 907.707031 279 935.042969 279 Z M 935.042969 279 " fill-opacity="1" fill-rule="nonzero"/><path fill="#000000" d="M 827.742188 406.875 C 830.019531 406.875 831.867188 405.027344 831.867188 402.75 L 831.867188 353.820312 C 831.867188 314.023438 865.46875 285.234375 902.484375 277.167969 C 899.664062 275.238281 897.03125 273.0625 894.601562 270.675781 C 856.691406 281.289062 823.613281 312.054688 823.613281 353.820312 L 823.613281 402.75 C 823.613281 405.027344 825.460938 406.875 827.742188 406.875 Z M 827.742188 406.875 " fill-opacity="1" fill-rule="nonzero"/><path fill="#000000" d="M 1124.878906 279 C 1124.878906 280.214844 1124.820312 281.429688 1124.703125 282.640625 C 1124.582031 283.847656 1124.402344 285.050781 1124.167969 286.242188 C 1123.929688 287.433594 1123.632812 288.613281 1123.28125 289.777344 C 1122.925781 290.941406 1122.519531 292.082031 1122.054688 293.207031 C 1121.585938 294.332031 1121.066406 295.429688 1120.496094 296.5 C 1119.921875 297.574219 1119.296875 298.613281 1118.621094 299.625 C 1117.945312 300.636719 1117.21875 301.613281 1116.449219 302.550781 C 1115.675781 303.492188 1114.859375 304.390625 1114 305.25 C 1113.140625 306.109375 1112.242188 306.925781 1111.300781 307.699219 C 1110.359375 308.46875 1109.382812 309.191406 1108.371094 309.867188 C 1107.359375 310.542969 1106.320312 311.167969 1105.246094 311.742188 C 1104.171875 312.316406 1103.074219 312.832031 1101.949219 313.300781 C 1100.828125 313.765625 1099.683594 314.171875 1098.519531 314.527344 C 1097.355469 314.878906 1096.175781 315.175781 1094.980469 315.410156 C 1093.789062 315.648438 1092.585938 315.828125 1091.375 315.945312 C 1090.167969 316.066406 1088.953125 316.125 1087.734375 316.125 C 1086.519531 316.125 1085.304688 316.066406 1084.09375 315.945312 C 1082.882812 315.828125 1081.683594 315.648438 1080.488281 315.410156 C 1079.296875 315.175781 1078.117188 314.878906 1076.953125 314.527344 C 1075.789062 314.171875 1074.644531 313.765625 1073.519531 313.300781 C 1072.398438 312.832031 1071.300781 312.316406 1070.226562 311.742188 C 1069.152344 311.167969 1068.109375 310.542969 1067.097656 309.867188 C 1066.089844 309.191406 1065.113281 308.46875 1064.171875 307.699219 C 1063.230469 306.925781 1062.332031 306.109375 1061.472656 305.25 C 1060.609375 304.390625 1059.792969 303.492188 1059.023438 302.550781 C 1058.25 301.613281 1057.527344 300.636719 1056.851562 299.625 C 1056.175781 298.613281 1055.550781 297.574219 1054.976562 296.5 C 1054.402344 295.429688 1053.882812 294.332031 1053.417969 293.207031 C 1052.953125 292.082031 1052.542969 290.941406 1052.191406 289.777344 C 1051.835938 288.613281 1051.542969 287.433594 1051.304688 286.242188 C 1051.066406 285.050781 1050.890625 283.847656 1050.769531 282.640625 C 1050.652344 281.429688 1050.589844 280.214844 1050.589844 279 C 1050.589844 277.785156 1050.652344 276.570312 1050.769531 275.359375 C 1050.890625 274.152344 1051.066406 272.949219 1051.304688 271.757812 C 1051.542969 270.566406 1051.835938 269.386719 1052.191406 268.222656 C 1052.542969 267.058594 1052.953125 265.917969 1053.417969 264.792969 C 1053.882812 263.667969 1054.402344 262.570312 1054.976562 261.5 C 1055.550781 260.425781 1056.175781 259.386719 1056.851562 258.375 C 1057.527344 257.363281 1058.25 256.386719 1059.023438 255.449219 C 1059.792969 254.507812 1060.609375 253.609375 1061.472656 252.75 C 1062.332031 251.890625 1063.230469 251.074219 1064.171875 250.300781 C 1065.113281 249.53125 1066.089844 248.808594 1067.097656 248.132812 C 1068.109375 247.457031 1069.152344 246.832031 1070.226562 246.257812 C 1071.300781 245.683594 1072.398438 245.167969 1073.519531 244.699219 C 1074.644531 244.234375 1075.789062 243.828125 1076.953125 243.472656 C 1078.117188 243.121094 1079.296875 242.824219 1080.488281 242.589844 C 1081.683594 242.351562 1082.882812 242.171875 1084.09375 242.054688 C 1085.304688 241.933594 1086.519531 241.875 1087.734375 241.875 C 1088.953125 241.875 1090.167969 241.933594 1091.375 242.054688 C 1092.585938 242.171875 1093.789062 242.351562 1094.980469 242.589844 C 1096.175781 242.824219 1097.355469 243.121094 1098.519531 243.472656 C 1099.683594 243.828125 1100.828125 244.234375 1101.949219 244.699219 C 1103.074219 245.167969 1104.171875 245.683594 1105.246094 246.257812 C 1106.320312 246.832031 1107.359375 247.457031 1108.371094 248.132812 C 1109.382812 248.808594 1110.359375 249.53125 1111.300781 250.300781 C 1112.242188 251.074219 1113.140625 251.890625 1114 252.75 C 1114.859375 253.609375 1115.675781 254.507812 1116.449219 255.449219 C 1117.21875 256.386719 1117.945312 257.363281 1118.621094 258.375 C 1119.296875 259.386719 1119.921875 260.425781 1120.496094 261.5 C 1121.066406 262.570312 1121.585938 263.667969 1122.054688 264.792969 C 1122.519531 265.917969 1122.925781 267.058594 1123.28125 268.222656 C 1123.632812 269.386719 1123.929688 270.566406 1124.167969 271.757812 C 1124.402344 272.949219 1124.582031 274.152344 1124.703125 275.359375 C 1124.820312 276.570312 1124.878906 277.785156 1124.878906 279 Z M 1124.878906 279 " fill-opacity="1" fill-rule="nonzero"/></svg>